<svg width="36" height="34" viewBox="0 0 36 34" fill="none" xmlns="http://www.w3.org/2000/svg">
<path d="M2.55253 12.427L3.24509 13.9547H1.86393L2.55253 12.427Z" fill="#006FCF"/>
<path d="M18.5021 13.3464C18.363 13.4228 18.1986 13.4253 18.0015 13.4253H16.7723V12.5742H18.0183C18.1946 12.5742 18.3786 12.5813 18.4981 12.6433C18.6294 12.6991 18.7106 12.8179 18.7106 12.9821C18.7106 13.1496 18.6333 13.2843 18.5021 13.3464Z" fill="#006FCF"/>
<path d="M26.5709 12.427L27.2711 13.9547H25.8745L26.5709 12.427Z" fill="#006FCF"/>
<path fill-rule="evenodd" clip-rule="evenodd" d="M0 16.361H1.72897L2.11879 15.5098H2.99151L3.38031 16.361H6.78194V15.7103L7.08557 16.3638H8.85144L9.15507 15.7006V16.361H17.6088L17.6048 14.9638H17.7684C17.8829 14.9674 17.9164 14.977 17.9164 15.1482V16.361H22.2886V16.0358C22.6413 16.2068 23.1898 16.361 23.9116 16.361H25.7511L26.1447 15.5098H27.0174L27.4024 16.361H30.947V15.5525L31.4838 16.361H34.3243V11.0162H31.5132V11.6475L31.1195 11.0162H28.235V11.6475L27.8735 11.0162H23.9773C23.3251 11.0162 22.7518 11.0987 22.2886 11.3283V11.0162H19.5999V11.3283C19.3052 11.0916 18.9036 11.0162 18.4571 11.0162H8.63399L7.97489 12.3967L7.29804 11.0162H4.204V11.6475L3.8641 11.0162H1.22538L0 13.5574V16.361ZM15.0593 15.6083H11.6791V11.7761H15.0593V12.5741H12.691V13.2649H15.0025V14.0504H12.691V14.8157H15.0593V15.6083ZM9.88772 15.6083H10.9249V11.7761H9.24023L8.02379 14.3758L6.69958 11.7761H5.04811V15.4044L3.32719 11.7761H1.82383L0.0118704 15.6083H1.11085L1.5036 14.7535H3.61039L3.99919 15.6083H6.0572V12.6043L7.52825 15.6083H8.41667L9.88389 12.607L9.88772 15.6083ZM19.8252 12.8082C19.8252 13.4192 19.3748 13.7349 19.1122 13.8296C19.3337 13.9059 19.5228 14.0407 19.6128 14.1524C19.7556 14.343 19.7803 14.5132 19.7803 14.8555V15.6083H18.7597L18.7559 15.125C18.7559 15.1017 18.7561 15.0772 18.7564 15.0521C18.7587 14.8287 18.7616 14.5441 18.5961 14.3785C18.4483 14.2437 18.2229 14.2144 17.8586 14.2144H16.7724V15.6083H15.7607V11.7761H18.088C18.6051 11.7761 18.9861 11.7885 19.3132 11.9597C19.6333 12.1308 19.8252 12.3808 19.8252 12.8082ZM21.4445 15.6083H20.4121V11.7761H21.4445V15.6083ZM33.4223 15.6083H31.9884L30.0705 12.732V15.6083H28.0098L27.616 14.7535H25.5141L25.132 15.6083H23.948C23.4562 15.6083 22.8335 15.5098 22.4808 15.1844C22.1252 14.8591 21.9402 14.4183 21.9402 13.7215C21.9402 13.1531 22.0508 12.6335 22.4857 12.223C22.8128 11.9171 23.3251 11.7761 24.0223 11.7761H25.0019V12.5972H24.0429C23.6736 12.5972 23.4651 12.6469 23.2643 12.8243C23.0918 12.9856 22.9734 13.2907 22.9734 13.6923C22.9734 14.1029 23.0636 14.3989 23.2516 14.5923C23.4074 14.7439 23.6905 14.7899 23.9568 14.7899H24.4113L25.8374 11.7762H27.3535L29.0666 15.4009V11.7762H30.6073L32.3859 14.4451V11.7762H33.4223V15.6083Z" fill="#006FCF"/>
<path d="M22.3337 20.0258C22.5306 20.0258 22.698 20.0195 22.8333 19.9468C22.9645 19.875 23.0429 19.7429 23.0429 19.5789C23.0429 19.4149 22.9645 19.2962 22.8333 19.2341C22.7109 19.1683 22.5306 19.1649 22.3504 19.1649H21.1045V20.0258H22.3337Z" fill="#006FCF"/>
<path d="M14.0268 20.2952L15.5804 21.8566V18.7834L14.0268 20.2952Z" fill="#006FCF"/>
<path d="M9.08062 21.4063H11.5684L12.7242 20.2818L11.6174 19.1647H9.08062V19.8616H11.3021V20.6437H9.08062V21.4063Z" fill="#006FCF"/>
<path d="M16.5882 20.141H17.8958C18.2846 20.141 18.5264 19.9663 18.5264 19.6348C18.5264 19.2996 18.2729 19.1649 17.9075 19.1649H16.5882V20.141Z" fill="#006FCF"/>
<path fill-rule="evenodd" clip-rule="evenodd" d="M36 21.7148C35.7542 22.0402 35.2753 22.2051 34.6269 22.2051H32.6728V21.3832H34.619C34.812 21.3832 34.9471 21.3602 35.0285 21.2883C35.0989 21.229 35.1481 21.1429 35.1481 21.0383C35.1481 20.9266 35.0989 20.838 35.0245 20.7848C34.9511 20.7263 34.8442 20.6997 34.668 20.6997C34.6058 20.6978 34.5427 20.6963 34.4789 20.6947C33.5679 20.6724 32.5326 20.647 32.5326 19.5133C32.5326 18.9574 32.9226 18.3721 33.9844 18.3721H35.9999V17.6095H34.1273C33.5621 17.6095 33.1516 17.732 32.8609 17.9225V17.6095H30.091C29.6481 17.6095 29.1282 17.7089 28.8822 17.9225V17.6095H23.936V17.9225C23.5424 17.6654 22.8782 17.6095 22.5716 17.6095H19.309V17.9225C18.9976 17.6495 18.305 17.6095 17.8829 17.6095H14.2315L13.396 18.4281L12.6134 17.6095H7.15898V22.958H12.5107L13.3717 22.1264L14.1828 22.958L17.4816 22.9606V21.7025H17.8059C18.2436 21.7086 18.7598 21.6926 19.2153 21.5144V22.9579H21.9362V21.5639H22.0675C22.235 21.5639 22.2515 21.5701 22.2515 21.7216V22.9577H30.5172C31.042 22.9577 31.5906 22.8361 31.8943 22.6155V22.9577H34.5162C35.0618 22.9577 35.5946 22.8885 36 22.7112V21.7148ZM31.9638 20.1835C32.1608 20.3681 32.2664 20.6011 32.2664 20.9956C32.2664 21.8202 31.6973 22.2051 30.6769 22.2051H28.7061V21.3832H30.6689C30.8608 21.3832 30.997 21.3602 31.0823 21.2883C31.1518 21.229 31.2018 21.1429 31.2018 21.0383C31.2018 20.9266 31.1478 20.838 31.0783 20.7848C31.0009 20.7263 30.8942 20.6997 30.718 20.6997C30.656 20.6978 30.593 20.6963 30.5294 20.6947C29.6216 20.6723 28.5867 20.6469 28.5867 19.5133C28.5867 18.9573 28.9725 18.3721 30.0333 18.3721H32.0618V19.1879H30.2057C30.0217 19.1879 29.9021 19.1942 29.8003 19.2572C29.6895 19.3193 29.6484 19.4114 29.6484 19.533C29.6484 19.6776 29.7425 19.7759 29.8698 19.8185C29.9765 19.8521 30.0912 19.8619 30.2635 19.8619L30.8082 19.8752C31.3575 19.8874 31.7346 19.9734 31.9638 20.1835ZM23.4444 20.4238C23.6697 20.4991 23.8538 20.634 23.9401 20.7456C24.083 20.9327 24.1037 21.1074 24.1078 21.4453V22.2051H23.0919V21.7256C23.0919 21.7025 23.0921 21.6784 23.0924 21.6535C23.0947 21.4284 23.0976 21.1357 22.9283 20.9753C22.7805 20.838 22.5551 20.8051 22.186 20.8051H21.1046V22.2051H20.0879V18.372H22.424C22.9363 18.372 23.3094 18.3925 23.6415 18.5529C23.9608 18.7276 24.1616 18.9668 24.1616 19.4041C24.1615 20.0159 23.7108 20.3281 23.4444 20.4238ZM24.7227 18.372H28.0998V19.1647H25.7304V19.8616H28.042V20.6437H25.7304V21.4063L28.0998 21.4098V22.2051H24.7227V18.372ZM19.6128 19.6348C19.6128 20.6996 18.7352 20.9195 17.8507 20.9195H16.5882V22.2051H14.6215L13.3755 20.9362L12.0807 22.2051H8.07269V18.372H12.1424L13.3873 19.6285L14.6743 18.372H17.9075C18.7106 18.372 19.6128 18.5733 19.6128 19.6348Z" fill="#006FCF"/>
<path d="M34.1558 19.1877H36V20.2784C35.9983 20.2765 35.9967 20.2746 35.9951 20.2726L35.9898 20.2664L35.9871 20.2632L35.987 20.2631C35.9637 20.2354 35.9407 20.2082 35.9061 20.1835C35.6809 19.9735 35.3115 19.8874 34.7581 19.875L34.2097 19.8617C34.0412 19.8617 33.9265 19.8519 33.8198 19.8182C33.6887 19.7757 33.5985 19.6773 33.5985 19.5327C33.5985 19.4111 33.6396 19.319 33.7464 19.2569C33.8494 19.1939 33.9717 19.1877 34.1558 19.1877Z" fill="#006FCF"/>
</svg>
