<svg width="17" height="17" viewBox="0 0 17 17" fill="none" xmlns="http://www.w3.org/2000/svg">
<path d="M13.4583 1.41667H12.9342V0.708333C12.9342 0.31875 12.6154 0 12.2258 0C11.8362 0 11.5175 0.31875 11.5175 0.708333V1.41667H5.4825V0.708333C5.4825 0.31875 5.16375 0 4.77417 0C4.38458 0 4.06583 0.31875 4.06583 0.708333V1.41667H3.54167C1.58667 1.41667 0 3.00333 0 4.95833V13.4583C0 15.4133 1.58667 17 3.54167 17H13.4583C15.4133 17 17 15.4133 17 13.4583V4.95833C17 3.00333 15.4133 1.41667 13.4583 1.41667ZM15.5833 13.4583C15.5833 14.6271 14.6271 15.5833 13.4583 15.5833H3.54167C2.37292 15.5833 1.41667 14.6271 1.41667 13.4583V4.95833C1.41667 3.78958 2.37292 2.83333 3.54167 2.83333H4.06583V3.54875C4.06583 3.93833 4.38458 4.25708 4.77417 4.25708C5.16375 4.25708 5.4825 3.93833 5.4825 3.54875V2.83333H11.5175V3.54875C11.5175 3.93833 11.8362 4.25708 12.2258 4.25708C12.6154 4.25708 12.9342 3.93833 12.9342 3.54875V2.83333H13.4583C14.6271 2.83333 15.5833 3.78958 15.5833 4.95833V13.4583Z" fill="#333D29"/>
<path d="M12.8563 5.66666H4.0942C3.70461 5.66666 3.38586 5.98541 3.38586 6.37499C3.38586 6.76457 3.70461 7.08332 4.0942 7.08332H12.8563C13.2459 7.08332 13.5646 6.76457 13.5646 6.37499C13.5646 5.98541 13.2459 5.66666 12.8563 5.66666Z" fill="#333D29"/>
</svg>
