<svg width="14" height="14" viewBox="0 0 14 14" fill="none" xmlns="http://www.w3.org/2000/svg">
<path fill-rule="evenodd" clip-rule="evenodd" d="M6.94975 5.53553L12.1924 0.292893C12.5829 -0.0976311 13.2161 -0.0976311 13.6066 0.292893C13.9971 0.683418 13.9971 1.31658 13.6066 1.70711L8.36396 6.94975L13.6066 12.1924C13.9971 12.5829 13.9971 13.2161 13.6066 13.6066C13.2161 13.9971 12.5829 13.9971 12.1924 13.6066L6.94975 8.36396L1.70711 13.6066C1.31658 13.9971 0.683418 13.9971 0.292893 13.6066C-0.0976311 13.2161 -0.0976311 12.5829 0.292893 12.1924L5.53553 6.94975L0.292893 1.70711C-0.0976311 1.31658 -0.0976311 0.683418 0.292893 0.292893C0.683418 -0.0976311 1.31658 -0.0976311 1.70711 0.292893L6.94975 5.53553Z" fill="#727272"/>
</svg>
