<svg width="33" height="31" viewBox="0 0 33 31" fill="none" xmlns="http://www.w3.org/2000/svg">
<path d="M16.039 30.061C24.8971 30.061 32.078 23.5408 32.078 15.4976C32.078 7.45452 24.8971 0.93428 16.039 0.93428C7.18091 0.93428 0 7.45452 0 15.4976C0 23.5408 7.18091 30.061 16.039 30.061Z" fill="#F7931A"/>
<path d="M23.2454 13.6954C23.5602 11.7876 21.9593 10.7618 19.772 10.0774L20.4817 7.49236L18.7495 7.10097L18.0578 9.6177C17.6027 9.51393 17.1356 9.41745 16.6694 9.32097L17.3661 6.78785L15.6339 6.39555L14.9242 8.97964C14.5473 8.90136 14.1764 8.8249 13.8175 8.74299L13.8195 8.73479L11.4297 8.19322L10.9686 9.87347C10.9686 9.87347 12.2547 10.1411 12.2276 10.1575C12.9293 10.3167 13.0556 10.7382 13.0346 11.0731L12.2266 14.0177C12.2747 14.0286 12.3369 14.045 12.407 14.0695L12.2236 14.0286L11.0908 18.1536C11.0046 18.3466 10.7871 18.637 10.2959 18.5268C10.314 18.5496 9.03685 18.2419 9.03685 18.2419L8.17676 20.0423L10.4322 20.553C10.8513 20.6485 11.2623 20.7487 11.6662 20.8424L10.9495 23.4565L12.6807 23.8479L13.3904 21.2629C13.8636 21.3785 14.3227 21.4859 14.7718 21.5879L14.0641 24.1619L15.7963 24.5533L16.513 21.9447C19.4682 22.4526 21.6896 22.2478 22.6249 19.8212C23.3787 17.8678 22.5878 16.7401 21.033 16.0056C22.1658 15.7689 23.0179 15.0926 23.2454 13.6954ZM19.2858 18.7362C18.7515 20.6904 15.1277 19.6336 13.9528 19.3688L14.9051 15.9054C16.08 16.1721 19.8461 16.6991 19.2858 18.7362ZM19.8221 13.6672C19.3339 15.4449 16.3186 14.541 15.3412 14.3198L16.2033 11.1796C17.1807 11.4008 20.3313 11.8131 19.8221 13.6672Z" fill="white"/>
</svg>
