<svg width="32" height="30" viewBox="0 0 32 30" fill="none" xmlns="http://www.w3.org/2000/svg">
<path d="M31.4533 4.31162C31.1138 3.46374 30.5737 2.69373 29.8711 2.05578C29.1685 1.41783 28.3205 0.927432 27.3867 0.619104C25.64 0.110626 24.0533 0.110626 20.8267 0.110626H11.1467C7.94667 0.110626 6.33333 0.110626 4.61333 0.594891C3.67819 0.904504 2.8293 1.39675 2.12662 2.03688C1.42393 2.677 0.884589 3.44939 0.546667 4.29951C0 5.87337 0 7.32616 0 10.2318V19.0333C0 21.951 0 23.3916 0.533333 24.9655C0.872903 25.8134 1.41299 26.5834 2.11558 27.2213C2.81818 27.8593 3.66621 28.3497 4.6 28.658C6.33333 29.1544 7.93333 29.1544 11.1333 29.1544H20.84C24.0533 29.1544 25.6533 29.1544 27.3733 28.6701C28.3109 28.362 29.1625 27.8704 29.8675 27.2302C30.5726 26.59 31.114 25.8168 31.4533 24.9655C32 23.3916 32 21.9388 32 19.0333V10.256C32 7.33827 32 5.88548 31.4533 4.31162ZM23.2267 9.91698L21.9867 11.0429C21.8658 11.145 21.7076 11.2027 21.5426 11.2049C21.3775 11.2072 21.2175 11.1537 21.0933 11.055C19.8925 10.1341 18.3718 9.62816 16.8 9.62642C15.5067 9.62642 14.2133 10.0138 14.2133 11.0913C14.2133 12.1809 15.6 12.5441 17.2 13.0889C20 13.9364 22.32 15.0018 22.32 17.4957C22.32 20.2076 20 22.072 16.2133 22.2778L15.8667 23.7306C15.836 23.8641 15.7556 23.984 15.6391 24.07C15.5225 24.156 15.3769 24.2029 15.2267 24.2028H12.84L12.72 24.1907C12.5492 24.1559 12.4003 24.0614 12.3055 23.9278C12.2107 23.7942 12.1776 23.632 12.2133 23.4764L12.5867 21.9388C11.1496 21.6117 9.82806 20.9576 8.74667 20.0381V20.026C8.687 19.972 8.63966 19.9079 8.60736 19.8372C8.57506 19.7666 8.55843 19.6909 8.55843 19.6144C8.55843 19.5379 8.57506 19.4622 8.60736 19.3915C8.63966 19.3209 8.687 19.2567 8.74667 19.2027L10.08 18.0284C10.2011 17.9254 10.3608 17.8681 10.5267 17.8681C10.6926 17.8681 10.8523 17.9254 10.9733 18.0284C12.1867 19.0696 13.8133 19.6507 15.4933 19.6265C17.2267 19.6265 18.3867 18.9606 18.3867 17.9073C18.3867 16.8541 17.2133 16.5756 15 15.825C12.6533 15.0623 10.4267 13.9848 10.4267 11.4666C10.4267 8.53683 13.1067 7.10825 16.28 6.97507L16.6133 5.48596C16.6443 5.35362 16.7252 5.23525 16.8421 5.15126C16.9589 5.06728 17.1044 5.02295 17.2533 5.02591H19.6267L19.76 5.03802C20.1067 5.11066 20.3333 5.41332 20.2533 5.72809L19.8933 7.3867C21.0933 7.7499 22.2267 8.31891 23.2 9.06952L23.2267 9.09373C23.48 9.33586 23.48 9.69906 23.2267 9.91698Z" fill="#05A068"/>
</svg>
