<svg width="17" height="17" viewBox="0 0 17 17" fill="none" xmlns="http://www.w3.org/2000/svg">
<path d="M11.9744 9.09281C12.7637 8.38941 13.3201 7.46381 13.5698 6.43847C13.8196 5.41314 13.751 4.33642 13.3731 3.35077C12.9953 2.36513 12.3259 1.51703 11.4537 0.918697C10.5814 0.320363 9.54738 0 8.48838 0C7.42938 0 6.39534 0.320363 5.52309 0.918697C4.65083 1.51703 3.98148 2.36513 3.60361 3.35077C3.22574 4.33642 3.15715 5.41314 3.40692 6.43847C3.6567 7.46381 4.21306 8.38941 5.00239 9.09281C3.54211 9.60225 2.27657 10.5508 1.38052 11.8075C0.484471 13.0642 0.00209702 14.567 0 16.1086C0 16.345 0.0942666 16.5717 0.262062 16.7389C0.429858 16.9061 0.657438 17 0.894737 17C1.13204 17 1.35962 16.9061 1.52741 16.7389C1.69521 16.5717 1.78947 16.345 1.78947 16.1086C1.79101 14.6076 2.39016 13.1685 3.45544 12.1072C4.52072 11.0458 5.9651 10.4489 7.47163 10.4473H9.52837C11.0349 10.4489 12.4793 11.0458 13.5446 12.1072C14.6098 13.1685 15.209 14.6076 15.2105 16.1086C15.2105 16.345 15.3048 16.5717 15.4726 16.7389C15.6404 16.9061 15.868 17 16.1053 17C16.3426 17 16.5701 16.9061 16.7379 16.7389C16.9057 16.5717 17 16.345 17 16.1086C16.9962 14.5642 16.5105 13.0593 15.61 11.8023C14.7095 10.5453 13.439 9.59837 11.9744 9.09281ZM8.48838 1.82815C9.1652 1.82815 9.82683 2.02811 10.3896 2.40275C10.9523 2.77739 11.391 3.30987 11.65 3.93287C11.909 4.55587 11.9767 5.2414 11.8447 5.90277C11.7127 6.56415 11.3867 7.17165 10.9082 7.64848C10.4296 8.1253 9.81981 8.45002 9.15599 8.58158C8.49218 8.71313 7.80411 8.64561 7.17881 8.38756C6.5535 8.1295 6.01905 7.6925 5.64303 7.13182C5.267 6.57113 5.0663 5.91195 5.0663 5.23762C5.0663 4.78988 5.15482 4.34653 5.32679 3.93287C5.49877 3.51922 5.75083 3.14336 6.0686 2.82676C6.71037 2.18736 7.58079 1.82815 8.48838 1.82815Z" fill="#333D29"/>
</svg>
