<svg width="15" height="17" viewBox="0 0 15 17" fill="none" xmlns="http://www.w3.org/2000/svg">
<path d="M8.125 12.152V7.23112C9.8961 6.94045 11.25 5.4446 11.25 3.64286C11.25 1.63394 9.56796 0 7.5 0C5.43204 0 3.75 1.63398 3.75 3.64286C3.75 5.44455 5.1039 6.94047 6.875 7.23112V12.152C4.064 12.2241 0 12.791 0 14.5714C0 16.4885 4.714 17 7.5 17C10.286 17 15 16.4885 15 14.5714C15 12.791 10.936 12.2241 8.125 12.152ZM7.5 15.7857C3.7226 15.7857 1.421 14.9782 1.246 14.5972C1.41084 14.1889 3.471 13.4482 6.875 13.3655V14.5714C6.875 14.9069 7.15468 15.1786 7.5 15.1786C7.84532 15.1786 8.125 14.9069 8.125 14.5714V13.3655C11.529 13.4482 13.589 14.1859 13.754 14.5456C13.579 14.9782 11.2774 15.7857 7.5 15.7857Z" fill="#333D29"/>
</svg>
