<svg width="36" height="34" viewBox="0 0 36 34" fill="none" xmlns="http://www.w3.org/2000/svg">
<path d="M6.54904 29.7712V28.0878C6.55992 27.9462 6.53742 27.8041 6.48305 27.6711C6.42869 27.538 6.3437 27.417 6.23376 27.3161C6.12381 27.2152 5.99144 27.1368 5.84547 27.086C5.69951 27.0352 5.5433 27.0133 5.38726 27.0217C5.18305 27.0096 4.979 27.0475 4.7964 27.1314C4.61379 27.2153 4.45931 27.3421 4.34906 27.4986C4.24858 27.3468 4.10485 27.2223 3.93301 27.1384C3.76118 27.0544 3.56759 27.0141 3.37265 27.0217C3.20272 27.0139 3.0335 27.0466 2.88175 27.1165C2.73 27.1864 2.60099 27.291 2.50747 27.4201V27.089H1.86475V29.7712H2.51362V28.2842C2.49959 28.1924 2.50812 28.099 2.53859 28.0106C2.56905 27.9222 2.6207 27.841 2.68983 27.7729C2.75896 27.7047 2.84384 27.6514 2.93839 27.6165C3.03294 27.5817 3.13481 27.5664 3.23667 27.5716C3.66308 27.5716 3.8794 27.8241 3.8794 28.2786V29.7712H4.52828V28.2842C4.5153 28.1926 4.52456 28.0996 4.55542 28.0116C4.58627 27.9236 4.63797 27.8428 4.70688 27.7749C4.77579 27.707 4.86023 27.6536 4.95429 27.6185C5.04834 27.5833 5.14973 27.5673 5.25132 27.5716C5.69005 27.5716 5.90016 27.8241 5.90016 28.2786V29.7712H6.54904ZM16.1525 27.089H15.1019V26.2754H14.453V27.089H13.8536V27.6221H14.453V28.8453C14.453 29.4682 14.7188 29.8385 15.4789 29.8385C15.7628 29.8393 16.0413 29.7674 16.2822 29.6309L16.0969 29.1315C15.9245 29.2249 15.7289 29.277 15.5283 29.283C15.207 29.283 15.1019 29.1034 15.1019 28.8341V27.6221H16.1525V27.089ZM21.634 27.0217C21.4773 27.0175 21.3222 27.0518 21.1852 27.1209C21.0481 27.19 20.9342 27.2915 20.8553 27.4145V27.089H20.2188V29.7712H20.8615V28.2674C20.8615 27.8241 21.0716 27.5772 21.4919 27.5772C21.6293 27.5755 21.7658 27.5984 21.8935 27.6445L22.0913 27.0946C21.9445 27.0469 21.7899 27.0223 21.634 27.0217ZM13.3469 27.3022C12.9831 27.1058 12.5648 27.0084 12.1418 27.0217C11.394 27.0217 10.912 27.3471 10.912 27.8802C10.912 28.3179 11.2704 28.5872 11.9316 28.6714L12.2345 28.7106C12.5867 28.7555 12.7536 28.8397 12.7536 28.9912C12.7536 29.1988 12.5187 29.3167 12.08 29.3167C11.727 29.3259 11.381 29.2271 11.0974 29.0361L10.7946 29.4906C11.1689 29.728 11.6174 29.85 12.0738 29.8385C12.9266 29.8385 13.421 29.4738 13.421 28.9632C13.421 28.4918 13.0317 28.2449 12.389 28.1607L12.0862 28.1214C11.8081 28.0878 11.5856 28.0373 11.5856 27.8578C11.5856 27.6614 11.7957 27.5435 12.148 27.5435C12.4714 27.548 12.7883 27.6271 13.0688 27.7736L13.3469 27.3022ZM30.5638 27.0217C30.4071 27.0175 30.252 27.0518 30.115 27.1209C29.978 27.19 29.864 27.2915 29.7851 27.4145V27.089H29.1486V29.7712H29.7913V28.2674C29.7913 27.8241 30.0014 27.5772 30.4216 27.5772C30.5591 27.5755 30.6956 27.5984 30.8234 27.6445L31.0211 27.0946C30.8743 27.0469 30.7197 27.0223 30.5638 27.0217ZM22.2828 28.43C22.2743 28.619 22.3094 28.8075 22.3859 28.9834C22.4624 29.1593 22.5786 29.3187 22.7271 29.4514C22.8755 29.584 23.0529 29.687 23.2478 29.7537C23.4427 29.8204 23.6508 29.8493 23.8587 29.8385C24.2446 29.8561 24.6237 29.742 24.9216 29.5187L24.6126 29.0473C24.3904 29.2011 24.1195 29.2857 23.8402 29.2886C23.5993 29.2753 23.3731 29.1791 23.2078 29.0196C23.0424 28.86 22.9503 28.6492 22.9503 28.4301C22.9503 28.211 23.0424 28.0002 23.2078 27.8406C23.3731 27.6811 23.5993 27.5849 23.8402 27.5716C24.1195 27.5745 24.3905 27.6591 24.6126 27.8129L24.9216 27.3415C24.6237 27.1182 24.2446 27.0041 23.8587 27.0217C23.6508 27.0109 23.4427 27.0398 23.2478 27.1065C23.0529 27.1732 22.8755 27.2762 22.7271 27.4088C22.5787 27.5415 22.4625 27.7009 22.3859 27.8767C22.3094 28.0526 22.2743 28.2411 22.2828 28.43ZM28.302 28.43V27.089H27.6593V27.4145C27.5496 27.2861 27.4076 27.1835 27.2453 27.1151C27.0829 27.0468 26.9049 27.0148 26.7261 27.0217C26.3279 27.0394 25.9524 27.1955 25.6775 27.4577C25.4025 27.7199 25.2492 28.0681 25.2492 28.4301C25.2492 28.7921 25.4025 29.1403 25.6775 29.4025C25.9524 29.6647 26.3279 29.8208 26.7261 29.8385C26.9049 29.8455 27.0829 29.8134 27.2453 29.7451C27.4076 29.6767 27.5496 29.5741 27.6593 29.4457V29.7712H28.302V28.43ZM25.9104 28.43C25.9203 28.2718 25.9811 28.1196 26.0852 27.9923C26.1893 27.865 26.3321 27.7682 26.4961 27.7137C26.66 27.6593 26.838 27.6496 27.0079 27.6858C27.1779 27.7221 27.3325 27.8027 27.4526 27.9178C27.5727 28.0328 27.6531 28.1773 27.6838 28.3334C27.7146 28.4894 27.6944 28.6502 27.6257 28.796C27.557 28.9417 27.4428 29.066 27.2973 29.1536C27.1517 29.2411 26.9811 29.288 26.8065 29.2886C26.6841 29.2901 26.5627 29.2686 26.45 29.2254C26.3372 29.1822 26.2355 29.1182 26.1513 29.0375C26.0671 28.9569 26.0023 28.8613 25.9608 28.7567C25.9193 28.6522 25.9021 28.5409 25.9104 28.43ZM18.1548 27.0217C17.754 27.0408 17.3769 27.2002 17.1027 27.4663C16.8285 27.7324 16.6785 28.0846 16.6841 28.449C16.6897 28.8134 16.8505 29.1617 17.1327 29.4207C17.415 29.6798 17.7968 29.8295 18.198 29.8385C18.6389 29.8526 19.0701 29.7188 19.4093 29.4625L19.0941 29.0305C18.85 29.2081 18.5478 29.3068 18.2351 29.3111C18.0227 29.3273 17.8117 29.2678 17.6468 29.1453C17.4818 29.0227 17.3759 28.8467 17.3514 28.6545H19.5452C19.5514 28.5816 19.5576 28.5086 19.5576 28.43C19.5514 27.594 18.9828 27.0217 18.1548 27.0217ZM18.1424 27.5435C18.3365 27.5401 18.5242 27.6067 18.6644 27.7287C18.8045 27.8507 18.8857 28.0182 18.8901 28.1944H17.3575C17.3688 28.0144 17.4573 27.8454 17.6039 27.7238C17.7506 27.6022 17.9438 27.5375 18.1424 27.5435ZM34.2655 28.43V26.0117H33.6228V27.4145C33.5131 27.2861 33.3711 27.1835 33.2088 27.1151C33.0464 27.0468 32.8684 27.0148 32.6896 27.0217C32.2914 27.0394 31.9159 27.1955 31.6409 27.4577C31.366 27.7199 31.2126 28.0681 31.2126 28.4301C31.2126 28.7922 31.366 29.1403 31.6409 29.4025C31.9159 29.6647 32.2914 29.8208 32.6896 29.8385C32.8684 29.8455 33.0464 29.8134 33.2088 29.7451C33.3711 29.6767 33.5131 29.5741 33.6228 29.4457V29.7712H34.2655V28.43ZM35.3368 29.3825C35.3768 29.3822 35.4163 29.3894 35.4531 29.4034C35.4885 29.4168 35.5207 29.4362 35.5481 29.4606C35.5753 29.4849 35.597 29.5137 35.6121 29.5455C35.6276 29.5782 35.6355 29.6134 35.6355 29.6489C35.6355 29.6845 35.6276 29.7197 35.6121 29.7523C35.5969 29.784 35.5752 29.8127 35.5481 29.837C35.5207 29.8613 35.4884 29.8808 35.4531 29.8944C35.4164 29.9087 35.3768 29.9159 35.3368 29.9157C35.278 29.9162 35.2204 29.901 35.171 29.872C35.1217 29.8429 35.0829 29.8013 35.0595 29.7523C35.044 29.7197 35.0361 29.6845 35.0361 29.6489C35.0361 29.6134 35.044 29.5782 35.0595 29.5455C35.0745 29.5138 35.0962 29.4849 35.1232 29.4606C35.1505 29.436 35.1829 29.4166 35.2185 29.4034C35.256 29.3893 35.2963 29.3822 35.3368 29.3825ZM35.3368 29.8569C35.3673 29.8571 35.3975 29.8515 35.4254 29.8405C35.4522 29.83 35.4766 29.8149 35.4973 29.7961C35.54 29.757 35.5639 29.7041 35.5639 29.6491C35.5639 29.594 35.54 29.5412 35.4973 29.502C35.4767 29.4833 35.4523 29.4683 35.4254 29.458C35.3974 29.4472 35.3673 29.4417 35.3368 29.4419C35.3059 29.4417 35.2752 29.4472 35.2466 29.458C35.2193 29.4682 35.1945 29.4831 35.1735 29.502C35.1308 29.5411 35.1069 29.594 35.1069 29.6491C35.1069 29.7041 35.1308 29.757 35.1735 29.7961C35.1945 29.815 35.2193 29.8301 35.2466 29.8405C35.2751 29.8515 35.3058 29.8571 35.3368 29.8569ZM35.3541 29.5243C35.383 29.5225 35.4117 29.5301 35.4351 29.5455C35.4445 29.5525 35.4519 29.5614 35.4568 29.5714C35.4617 29.5814 35.464 29.5924 35.4635 29.6033C35.4638 29.6128 35.462 29.6221 35.4581 29.6308C35.4542 29.6395 35.4483 29.6474 35.4409 29.6539C35.423 29.6684 35.4003 29.677 35.3764 29.6785L35.4657 29.7719H35.3959L35.3131 29.6791H35.2865V29.7719H35.2282V29.5243H35.3541ZM35.2865 29.5707V29.6367H35.3534C35.3663 29.6373 35.3791 29.6344 35.3902 29.6285C35.3947 29.6257 35.3983 29.622 35.4007 29.6176C35.4031 29.6132 35.4041 29.6083 35.4038 29.6033C35.4041 29.5985 35.403 29.5937 35.4006 29.5894C35.3982 29.5851 35.3946 29.5814 35.3902 29.5788C35.379 29.5729 35.3663 29.5701 35.3534 29.5707H35.2865ZM31.8739 28.43C31.8839 28.2718 31.9447 28.1196 32.0488 27.9924C32.1528 27.8651 32.2957 27.7682 32.4596 27.7138C32.6236 27.6593 32.8015 27.6496 32.9715 27.6859C33.1414 27.7222 33.296 27.8028 33.4161 27.9179C33.5362 28.0329 33.6165 28.1774 33.6473 28.3334C33.6781 28.4895 33.6578 28.6503 33.5891 28.796C33.5204 28.9418 33.4063 29.0661 33.2607 29.1536C33.1151 29.2411 32.9445 29.2881 32.77 29.2886C32.6476 29.2901 32.5262 29.2686 32.4135 29.2254C32.3007 29.1821 32.199 29.1182 32.1148 29.0375C32.0307 28.9569 31.9658 28.8612 31.9243 28.7567C31.8829 28.6521 31.8657 28.5409 31.8739 28.43ZM10.1704 28.43V27.089H9.5277V27.4145C9.418 27.2861 9.27604 27.1835 9.1137 27.1151C8.95135 27.0468 8.77333 27.0148 8.59455 27.0217C8.19631 27.0394 7.82084 27.1955 7.5459 27.4577C7.27095 27.7199 7.1176 28.0681 7.1176 28.4301C7.1176 28.7921 7.27095 29.1403 7.5459 29.4025C7.82084 29.6647 8.19631 29.8208 8.59455 29.8385C8.77334 29.8455 8.95135 29.8134 9.1137 29.7451C9.27604 29.6767 9.418 29.5741 9.5277 29.4457V29.7712H10.1704V28.43ZM7.77886 28.43C7.78884 28.2718 7.84962 28.1196 7.9537 27.9924C8.05778 27.8651 8.20061 27.7682 8.36457 27.7138C8.52853 27.6593 8.70647 27.6496 8.87642 27.6859C9.04638 27.7222 9.20094 27.8028 9.32103 27.9179C9.44112 28.0329 9.52149 28.1774 9.55224 28.3334C9.58299 28.4895 9.56277 28.6503 9.49407 28.796C9.42538 28.9418 9.31121 29.0661 9.16564 29.1536C9.02008 29.2411 8.84949 29.2881 8.6749 29.2886C8.55253 29.2901 8.43114 29.2686 8.31839 29.2254C8.20563 29.1821 8.10397 29.1182 8.01978 29.0375C7.9356 28.9569 7.87073 28.8612 7.82927 28.7567C7.78781 28.6521 7.77064 28.5409 7.77886 28.43Z" fill="#231F20"/>
<path d="M22.8678 6.64819H13.1333V22.532H22.8678V6.64819Z" fill="#FF5F00"/>
<path d="M13.7511 14.5906C13.7495 13.0609 14.1313 11.5509 14.8675 10.175C15.6036 8.79903 16.6749 7.59319 18.0002 6.64875C16.359 5.47742 14.388 4.74899 12.3124 4.54671C10.2369 4.34444 8.14048 4.67648 6.26291 5.50488C4.38534 6.33328 2.80233 7.62463 1.69482 9.23131C0.587319 10.838 0 12.6952 0 14.5906C0 16.4861 0.587319 18.3433 1.69482 19.95C2.80233 21.5567 4.38534 22.848 6.26291 23.6764C8.14048 24.5048 10.2369 24.8368 12.3124 24.6346C14.388 24.4323 16.359 23.7039 18.0002 22.5325C16.6749 21.5881 15.6037 20.3822 14.8675 19.0063C14.1313 17.6304 13.7495 16.1204 13.7511 14.5906Z" fill="#EB001B"/>
<path d="M36.0001 14.5906C36.0002 16.486 35.413 18.3432 34.3055 19.9499C33.1981 21.5566 31.6151 22.848 29.7376 23.6764C27.8601 24.5048 25.7637 24.8368 23.6882 24.6346C21.6126 24.4323 19.6416 23.7039 18.0005 22.5325C19.3246 21.5871 20.3951 20.3811 21.1311 19.0054C21.8672 17.6296 22.2496 16.1201 22.2496 14.5906C22.2496 13.0612 21.8672 11.5516 21.1311 10.1759C20.3951 8.80018 19.3246 7.59414 18.0005 6.64875C19.6416 5.47742 21.6126 4.74899 23.6882 4.54671C25.7637 4.34444 27.8601 4.67648 29.7376 5.5049C31.6151 6.33331 33.1981 7.62466 34.3055 9.23134C35.413 10.838 36.0002 12.6952 36.0001 14.5906Z" fill="#F79E1B"/>
<path d="M34.9387 20.8498V20.5247H35.0831V20.4584H34.7153V20.5247H34.8598V20.8498H34.9387ZM35.6527 20.8498V20.4578H35.54L35.4103 20.7275L35.2806 20.4578H35.1678V20.8498H35.2474V20.5541L35.369 20.8091H35.4516L35.5732 20.5534V20.8498H35.6527Z" fill="#F79E1B"/>
</svg>
