<svg width="142" height="143" viewBox="0 0 142 143" fill="none" xmlns="http://www.w3.org/2000/svg">
<rect x="4" y="4.5" width="134" height="134" rx="67" fill="#D1FADF"/>
<rect x="4" y="4.5" width="134" height="134" rx="67" stroke="#ECFDF3" stroke-width="8"/>
<path d="M97.6668 69.0467V71.5C97.6636 77.2505 95.8015 82.8458 92.3584 87.4515C88.9153 92.0573 84.0756 95.4266 78.5611 97.0571C73.0466 98.6875 67.1529 98.4917 61.7587 96.4989C56.3646 94.506 51.7592 90.8229 48.6294 85.9988C45.4995 81.1748 44.0129 75.4682 44.3913 69.7302C44.7697 63.9922 46.9927 58.5302 50.7289 54.1589C54.4651 49.7875 59.5143 46.741 65.1233 45.4737C70.7324 44.2064 76.6009 44.7862 81.8535 47.1267M97.6668 50.1667L71.0002 76.86L63.0002 68.86" stroke="#039855" stroke-width="3" stroke-linecap="round" stroke-linejoin="round"/>
</svg>
